<svg id="Layer_1" data-name="Layer 1" xmlns="http://www.w3.org/2000/svg" viewBox="0 0 1000 1000"><defs><style>.cls-1{fill:#0045ff;}</style></defs><title>pumn</title><path class="cls-1" d="M357.25,985.89q3.15-77.61,6.32-155.21,2.71-65.89,5.53-131.78,2.89-69.1,5.81-138.21c0-1.14.25-2.27.43-4l64.81,5.84.24-.9c-3.77-1.23-7.51-2.52-11.3-3.68-21.64-6.65-43.29-13.22-64.91-19.94-2.32-.72-5-1.74-6.5-3.48C321.75,493.3,286,451.85,256.31,405.73c-5.89-9.14-10.39-19.19-15.24-29-2.63-5.3-2.31-10.59.05-16.31q29-70.32,57.45-140.86c3.83-9.53,9.84-15.54,19.49-19.14,15.57-5.8,30.9-12.22,47.67-13.57a31.18,31.18,0,0,1,12.1,1.15c42.92,14.37,85.76,29,128.62,43.56.88.3,1.73.74,3,1.27-7.4,23.74-22.08,40.73-44.64,50.63-24,10.53-49.15,11.86-74.72,8.55-4.51-.59-7.6,0-10.63,3.68-6.09,7.37-15,13.36-18.46,21.7-3.38,8.09-1.44,18.41-1.83,27.75-.67,16.29-.64,16.23,14.3,23.08,22.86,10.49,45.65,21.12,68.52,31.59,8.12,3.72,16.51,6.88,24.49,10.86a13.58,13.58,0,0,1,6.26,6.74c8.59,23.84,16.8,47.81,25.14,71.74a8.49,8.49,0,0,0,2.78,4.32q-3.8-18.86-7.59-37.73c-3.07-15.09-6-30.21-9.44-45.21a12.8,12.8,0,0,0-5.37-7.43c-32.81-19.22-65.7-38.32-98.81-57-5.6-3.15-8.09-6.56-7-12.78a75.51,75.51,0,0,0,.45-8.2c7.37,2.81,14.36,4.75,20.67,8,20.24,10.5,38.45,6.68,56-7.43,5.23,15.38,17.4,22.07,31.43,26.53a87.65,87.65,0,0,1,9.27,3.62c13.32,6,26.7,9,40.43.68,2.26,6.09,4.09,11.58,6.32,16.9a35.69,35.69,0,0,0,20.74,20.32c6.89,2.68,13.76,5.42,20.67,8,19.47,7.37,21.22,7.37,40,.44.66,2,1.38,4.05,2,6.1,5.5,19.57,19.46,29.84,38.21,34.92a44.53,44.53,0,0,1,8.27,2.9c15.52,7.79,30.25,5.36,44.6-3.11,1.31-.78,2.63-1.54,4.77-2.79.39,12.8,2.28,25.24-4.68,36.18-6.48,10.18-14.16,19.58-21.08,29.48-5.65,8.1-10.86,16.52-16.52,24.62a9.86,9.86,0,0,1-5,3.19q-43.07,13.32-86.18,26.44a8.58,8.58,0,0,0-4.18,2.36l82.1-7.48c.84,13.42,1.74,26,2.41,38.67,2.94,55.61,5.69,111.23,8.75,166.83q6,109.15,12.34,218.28c.13,2.34.17,4.68.26,7H568.34c-.4-1.7-.92-3.37-1.18-5.09q-10.77-70.6-21.49-141.23-14.46-94.92-29-189.83-3.06-20.12-6.18-40.21a27.18,27.18,0,0,0-.52,7.68q5.76,79.75,11.61,159.5,3.81,52,7.65,104,3.79,52.57,7.43,105.18Z"/><path class="cls-1" d="M262.37,259.68c-17.92-4-35.11-8.46-52.52-11.67-16.12-3-31.74-.46-46.75,6.71-10,4.77-20.28,9.37-30.94,12.07-6.6,1.68-14.51.95-21.2-.92a125.37,125.37,0,0,1-65.73-43.72c-18-22.77-33.55-47.24-42.32-75.1-3-9.39-2.75-19.94-2.91-30-.09-6,3.27-7.52,8.65-4.66A85.27,85.27,0,0,1,21.14,121q29.72,23.33,59.29,46.82c.76.6,1.65,1,2.42,1.64,20.59,15.77,33.23,8.29,46.12-4.06,8.92-8.53,16.22-18.94,23.19-29.22,3.37-5,5.09-11.43,6.15-17.46,1.6-9.13-.27-17.52-7.05-24.86-12.61-13.63-27.64-24.07-42.73-34.54C97.94,52,87.4,44.55,77.12,36.79c-6.71-5.06-6.64-7.31-.34-12.76,10.69-9.24,23.68-10.59,37-9.67,33.15,2.27,62.93,14.68,90.77,31.92,10.4,6.43,20,14.31,29.38,22.17a43.26,43.26,0,0,1,15.36,27c4.94,32.51,24.63,53.48,52.34,68.41,8.57,4.62,17.18,9.16,26.59,14.17-5.8,2.39-10.93,4.92-16.32,6.62-14.12,4.45-23.38,13.18-28.71,27.33C277,228.36,269.21,244.15,262.37,259.68Z"/><path class="cls-1" d="M756.65,354.39c15.72,5.1,30.58,10.41,45.73,14.69,17.47,4.93,35.13,3.6,52.6-.72,23.34-5.77,46.75-8.91,70.61-2.88,50,12.65,81.81,61.29,72.92,111.91-8.78,50-54.84,85.64-105.64,80-31.24-3.45-57.84-17-76.49-43.52-2-2.87-4.21-5.65-5.93-8.7-12-21.15-29.85-35.2-52.24-44-6.89-2.7-13.59-5.93-20.49-8.61-3-1.15-4.27-2.6-4.14-5.93.27-6.43.62-12.93-.07-19.29-1.32-12.26,3.31-22.86,7.83-33.69,4.73-11.32,8.86-22.89,13.27-34.34C755.3,357.58,756.07,355.81,756.65,354.39ZM963.9,485.24c-2.85-20.87-5.6-40.19-8-59.55-.48-3.81-1.9-5.71-5.45-7.12q-26.62-10.59-53-21.72c-3.12-1.32-5.18-1.11-7.87,1-15,11.59-30.08,23-45.17,34.4-3,2.28-4.42,4.83-3.81,9q4.23,28.37,7.79,56.84c.42,3.37,1.65,5.06,4.78,6.32,18.09,7.27,36.06,14.84,54.19,22a8.07,8.07,0,0,0,6.7-.79c15.76-11.84,31.35-23.92,46.87-36.08C962.46,488.26,963.32,486.09,963.9,485.24Z"/><path class="cls-1" d="M546.69,351.3a89.61,89.61,0,0,1,2.58-9.52q23.31-60.31,46.82-120.55a29.7,29.7,0,0,1,38.87-17c7.46,2.89,14.89,5.84,22.35,8.73,14,5.41,22.55,22.58,17.26,36.43Q650.8,311.73,626.2,373.74C621,386.83,603.8,394,590.49,389.28c-9.19-3.25-18.27-6.82-27.29-10.52S547.11,362.53,546.69,351.3Z"/><path class="cls-1" d="M684.85,435.27c-4.69-1.62-10.9-3.71-17.08-5.91-3.85-1.38-7.55-3.26-11.48-4.36-10.54-2.94-16.81-9.76-20.2-20.05-2.06-6.24-2.5-12.07-.11-18.22,15.22-39.07,30.7-78,45.37-117.32,4.29-11.51,25.66-22.41,37.75-16,7.87,4.18,16.67,6.57,25,10,12.71,5.18,20.6,22.25,15.65,35.14-13,33.86-26.39,67.57-39.59,101.36-1.91,4.9-3.88,9.81-5.33,14.86C711,427.92,698.35,433,684.85,435.27Z"/><path class="cls-1" d="M494.71,213.37c6.37-16.12,11.88-31.77,18.7-46.82,5.75-12.66,23.71-18.89,36.55-13.93,7.46,2.88,14.9,5.83,22.36,8.71,14.39,5.57,23.12,23,17.65,37.32q-24.62,64.54-50.05,128.76c-5.56,14.06-23.64,21.32-37.6,16-8.2-3.15-16.39-6.3-24.55-9.55-10.06-4-19.21-20.81-16.6-31.31.5-2,3.19-4.12,5.35-5,26.57-11,44.86-29.89,54.49-57.06,4.06-11.46,1.1-17.48-10.55-21.55Z"/><path class="cls-1" d="M402.62,182.17c4.3-11,8-21.49,12.47-31.63,5.58-12.63,23.3-19.58,36.23-14.68,8,3,16,6.2,24,9.35,12.26,4.85,21.18,20.37,17.79,33.24-2.71,10.27-7.25,20.05-11.17,30.59Z"/><path class="cls-1" d="M383.58,312.06c2.5-5.33,5.95-6.3,11.1-6.24,14.58.19,29.18-.56,43.77-1,1.73,0,3.45-.28,5.94-.5a36.63,36.63,0,0,1-1.83,4.56c-6.56,11.1-23.25,17-35.21,12.38C399.53,318.29,391.75,315.23,383.58,312.06Z"/></svg>