<?xml version="1.0" encoding="UTF-8"?>
<svg xmlns="http://www.w3.org/2000/svg" xmlns:xlink="http://www.w3.org/1999/xlink" width="150pt" height="150pt" viewBox="0 0 150 150" version="1.1">
<g id="surface1">
<path style=" stroke:none;fill-rule:nonzero;fill:rgb(0%,27.058824%,100%);fill-opacity:1;" d="M 53.585938 147.882812 C 53.902344 140.121094 54.21875 132.363281 54.535156 124.601562 C 54.804688 118.011719 55.082031 111.425781 55.363281 104.835938 C 55.652344 97.925781 55.945312 91.015625 56.238281 84.101562 C 56.238281 83.933594 56.273438 83.761719 56.300781 83.503906 L 66.023438 84.378906 L 66.058594 84.246094 C 65.492188 84.058594 64.933594 83.867188 64.363281 83.691406 C 61.117188 82.695312 57.871094 81.710938 54.628906 80.703125 C 54.277344 80.59375 53.878906 80.441406 53.652344 80.179688 C 48.261719 73.996094 42.898438 67.777344 38.445312 60.859375 C 37.5625 59.488281 36.886719 57.980469 36.160156 56.507812 C 35.765625 55.714844 35.8125 54.921875 36.167969 54.0625 C 39.066406 47.03125 41.941406 39.988281 44.785156 32.933594 C 45.359375 31.503906 46.261719 30.601562 47.710938 30.0625 C 50.042969 29.191406 52.34375 28.230469 54.859375 28.027344 C 55.46875 27.964844 56.085938 28.023438 56.675781 28.199219 C 63.113281 30.355469 69.539062 32.550781 75.96875 34.734375 C 76.097656 34.777344 76.226562 34.84375 76.417969 34.925781 C 75.308594 38.484375 73.105469 41.035156 69.722656 42.519531 C 66.121094 44.097656 62.347656 44.296875 58.511719 43.800781 C 57.835938 43.714844 57.375 43.800781 56.917969 44.351562 C 56.003906 45.460938 54.667969 46.359375 54.148438 47.609375 C 53.644531 48.820312 53.933594 50.371094 53.875 51.769531 C 53.773438 54.214844 53.78125 54.207031 56.019531 55.234375 C 59.449219 56.804688 62.867188 58.402344 66.296875 59.972656 C 67.515625 60.53125 68.773438 61.003906 69.972656 61.601562 C 70.394531 61.816406 70.726562 62.175781 70.910156 62.613281 C 72.199219 66.1875 73.429688 69.78125 74.683594 73.371094 C 74.75 73.625 74.894531 73.851562 75.097656 74.019531 C 74.71875 72.132812 74.339844 70.246094 73.960938 68.359375 C 73.5 66.097656 73.058594 63.828125 72.542969 61.578125 C 72.421875 61.121094 72.136719 60.722656 71.738281 60.464844 C 66.816406 57.582031 61.882812 54.71875 56.917969 51.914062 C 56.078125 51.441406 55.703125 50.929688 55.867188 49.996094 C 55.914062 49.589844 55.933594 49.179688 55.933594 48.769531 C 57.039062 49.191406 58.089844 49.480469 59.035156 49.96875 C 62.070312 51.542969 64.804688 50.96875 67.433594 48.851562 C 68.21875 51.160156 70.046875 52.164062 72.148438 52.832031 C 72.625 52.988281 73.085938 53.167969 73.539062 53.375 C 75.539062 54.277344 77.546875 54.726562 79.605469 53.476562 C 79.945312 54.390625 80.21875 55.214844 80.554688 56.011719 C 81.109375 57.425781 82.242188 58.53125 83.664062 59.0625 C 84.699219 59.464844 85.726562 59.875 86.765625 60.261719 C 89.683594 61.367188 89.949219 61.367188 92.765625 60.328125 C 92.863281 60.628906 92.972656 60.933594 93.066406 61.242188 C 93.890625 64.175781 95.984375 65.71875 98.796875 66.480469 C 99.222656 66.582031 99.636719 66.730469 100.035156 66.914062 C 102.363281 68.082031 104.574219 67.71875 106.726562 66.449219 C 106.921875 66.332031 107.121094 66.21875 107.441406 66.03125 C 107.5 67.949219 107.785156 69.816406 106.738281 71.457031 C 105.769531 72.984375 104.617188 74.394531 103.578125 75.878906 C 102.730469 77.09375 101.949219 78.355469 101.101562 79.570312 C 100.90625 79.804688 100.644531 79.972656 100.351562 80.050781 C 96.042969 81.382812 91.734375 82.703125 87.421875 84.015625 C 87.183594 84.074219 86.96875 84.195312 86.796875 84.371094 L 99.109375 83.25 C 99.238281 85.261719 99.371094 87.148438 99.472656 89.050781 C 99.914062 97.390625 100.324219 105.734375 100.785156 114.074219 C 101.386719 124.988281 102.003906 135.902344 102.636719 146.816406 C 102.65625 147.167969 102.660156 147.515625 102.675781 147.867188 L 85.25 147.867188 C 85.191406 147.609375 85.113281 147.359375 85.074219 147.101562 C 83.996094 140.042969 82.921875 132.980469 81.851562 125.917969 C 80.40625 116.425781 78.953125 106.933594 77.5 97.441406 C 77.195312 95.429688 76.886719 93.421875 76.574219 91.410156 C 76.492188 91.789062 76.464844 92.179688 76.496094 92.5625 C 77.070312 100.539062 77.652344 108.511719 78.238281 116.488281 C 78.617188 121.6875 79 126.886719 79.382812 132.089844 C 79.761719 137.34375 80.136719 142.605469 80.5 147.867188 Z M 53.585938 147.882812 "/>
<path style=" stroke:none;fill-rule:nonzero;fill:rgb(0%,27.058824%,100%);fill-opacity:1;" d="M 39.355469 38.953125 C 36.667969 38.351562 34.089844 37.683594 31.476562 37.203125 C 29.058594 36.75 26.714844 37.132812 24.464844 38.207031 C 22.964844 38.921875 21.421875 39.613281 19.824219 40.019531 C 18.835938 40.269531 17.648438 40.160156 16.644531 39.878906 C 12.738281 38.8125 9.277344 36.511719 6.785156 33.324219 C 4.085938 29.90625 1.753906 26.238281 0.4375 22.058594 C -0.0117188 20.648438 0.0234375 19.066406 0 17.558594 C -0.0117188 16.65625 0.492188 16.429688 1.296875 16.859375 C 1.960938 17.234375 2.585938 17.664062 3.171875 18.148438 C 6.144531 20.484375 9.109375 22.824219 12.066406 25.171875 C 12.179688 25.261719 12.3125 25.324219 12.425781 25.417969 C 15.515625 27.785156 17.410156 26.664062 19.34375 24.808594 C 20.683594 23.53125 21.777344 21.96875 22.824219 20.425781 C 23.328125 19.675781 23.585938 18.710938 23.746094 17.808594 C 23.988281 16.4375 23.707031 15.179688 22.6875 14.078125 C 20.796875 12.035156 18.542969 10.46875 16.28125 8.898438 C 14.691406 7.800781 13.109375 6.683594 11.566406 5.519531 C 10.5625 4.757812 10.570312 4.421875 11.515625 3.605469 C 13.121094 2.21875 15.070312 2.015625 17.066406 2.152344 C 22.039062 2.496094 26.507812 4.355469 30.683594 6.941406 C 32.242188 7.90625 33.683594 9.089844 35.089844 10.265625 C 36.332031 11.285156 37.152344 12.730469 37.394531 14.316406 C 38.132812 19.195312 41.089844 22.339844 45.246094 24.578125 C 46.53125 25.273438 47.820312 25.953125 49.234375 26.703125 C 48.363281 27.0625 47.59375 27.441406 46.785156 27.699219 C 44.667969 28.363281 43.277344 29.675781 42.476562 31.796875 C 41.550781 34.253906 40.382812 36.621094 39.355469 38.953125 Z M 39.355469 38.953125 "/>
<path style=" stroke:none;fill-rule:nonzero;fill:rgb(0%,27.058824%,100%);fill-opacity:1;" d="M 113.496094 53.160156 C 115.855469 53.921875 118.085938 54.71875 120.355469 55.363281 C 122.976562 56.101562 125.625 55.902344 128.246094 55.253906 C 131.746094 54.386719 135.257812 53.917969 138.839844 54.820312 C 146.339844 56.71875 151.109375 64.015625 149.777344 71.609375 C 148.460938 79.109375 141.550781 84.453125 133.929688 83.609375 C 129.246094 83.089844 125.253906 81.058594 122.457031 77.082031 C 122.15625 76.648438 121.824219 76.234375 121.566406 75.777344 C 119.765625 72.601562 117.089844 70.496094 113.730469 69.175781 C 112.699219 68.769531 111.691406 68.285156 110.65625 67.882812 C 110.207031 67.710938 110.015625 67.492188 110.035156 66.996094 C 110.078125 66.03125 110.128906 65.054688 110.027344 64.101562 C 109.828125 62.261719 110.523438 60.671875 111.199219 59.046875 C 111.910156 57.347656 112.53125 55.613281 113.191406 53.898438 C 113.296875 53.636719 113.410156 53.371094 113.496094 53.160156 Z M 144.585938 72.785156 C 144.15625 69.65625 143.746094 66.757812 143.386719 63.851562 C 143.3125 63.28125 143.101562 62.996094 142.566406 62.785156 C 139.90625 61.726562 137.253906 60.640625 134.617188 59.527344 C 134.148438 59.328125 133.839844 59.359375 133.4375 59.675781 C 131.1875 61.414062 128.925781 63.128906 126.660156 64.835938 C 126.210938 65.179688 126 65.5625 126.089844 66.1875 C 126.511719 69.023438 126.902344 71.867188 127.257812 74.714844 C 127.320312 75.21875 127.507812 75.472656 127.976562 75.660156 C 130.6875 76.753906 133.382812 77.886719 136.105469 78.960938 C 136.441406 79.070312 136.808594 79.027344 137.109375 78.84375 C 139.472656 77.066406 141.8125 75.253906 144.140625 73.429688 C 144.367188 73.238281 144.496094 72.914062 144.585938 72.785156 Z M 144.585938 72.785156 "/>
<path style=" stroke:none;fill-rule:nonzero;fill:rgb(0%,27.058824%,100%);fill-opacity:1;" d="M 82.003906 52.695312 C 82.105469 52.210938 82.234375 51.734375 82.390625 51.265625 C 84.722656 45.234375 87.0625 39.207031 89.414062 33.183594 C 89.839844 32.066406 90.695312 31.164062 91.792969 30.683594 C 92.890625 30.203125 94.132812 30.1875 95.242188 30.632812 C 96.363281 31.066406 97.476562 31.511719 98.597656 31.945312 C 100.695312 32.753906 101.980469 35.332031 101.183594 37.410156 C 98.808594 43.640625 96.390625 49.859375 93.929688 56.0625 C 93.148438 58.023438 90.570312 59.101562 88.574219 58.390625 C 87.195312 57.90625 85.832031 57.367188 84.480469 56.8125 C 83.128906 56.257812 82.066406 54.378906 82.003906 52.695312 Z M 82.003906 52.695312 "/>
<path style=" stroke:none;fill-rule:nonzero;fill:rgb(0%,27.058824%,100%);fill-opacity:1;" d="M 102.726562 65.289062 C 102.023438 65.046875 101.09375 64.734375 100.164062 64.402344 C 99.589844 64.195312 99.03125 63.914062 98.445312 63.75 C 96.863281 63.308594 95.921875 62.285156 95.414062 60.742188 C 95.105469 59.804688 95.039062 58.933594 95.398438 58.007812 C 97.679688 52.148438 100.003906 46.308594 102.203125 40.410156 C 102.847656 38.683594 106.050781 37.050781 107.863281 38.011719 C 109.046875 38.636719 110.367188 38.996094 111.613281 39.511719 C 113.523438 40.289062 114.703125 42.847656 113.960938 44.78125 C 112.011719 49.863281 110.003906 54.917969 108.023438 59.988281 C 107.738281 60.722656 107.441406 61.457031 107.222656 62.214844 C 106.648438 64.1875 104.753906 64.949219 102.726562 65.289062 Z M 102.726562 65.289062 "/>
<path style=" stroke:none;fill-rule:nonzero;fill:rgb(0%,27.058824%,100%);fill-opacity:1;" d="M 74.207031 32.003906 C 75.160156 29.585938 75.988281 27.238281 77.011719 24.984375 C 77.875 23.082031 80.566406 22.148438 82.492188 22.894531 C 83.613281 23.324219 84.730469 23.765625 85.847656 24.199219 C 88.007812 25.035156 89.316406 27.648438 88.496094 29.796875 C 86.035156 36.25 83.53125 42.691406 80.988281 49.113281 C 80.152344 51.21875 77.441406 52.308594 75.347656 51.511719 C 74.117188 51.039062 72.890625 50.566406 71.664062 50.078125 C 70.15625 49.480469 68.785156 46.957031 69.175781 45.382812 C 69.25 45.082031 69.652344 44.765625 69.976562 44.632812 C 73.964844 42.984375 76.707031 40.148438 78.152344 36.074219 C 78.761719 34.355469 78.316406 33.453125 76.570312 32.839844 Z M 74.207031 32.003906 "/>
<path style=" stroke:none;fill-rule:nonzero;fill:rgb(0%,27.058824%,100%);fill-opacity:1;" d="M 60.394531 27.324219 C 61.039062 25.675781 61.59375 24.101562 62.261719 22.582031 C 63.101562 20.6875 65.757812 19.644531 67.699219 20.378906 C 68.898438 20.828125 70.097656 21.308594 71.296875 21.78125 C 73.136719 22.507812 74.476562 24.835938 73.964844 26.765625 C 73.558594 28.308594 72.878906 29.773438 72.289062 31.355469 Z M 60.394531 27.324219 "/>
<path style=" stroke:none;fill-rule:nonzero;fill:rgb(0%,27.058824%,100%);fill-opacity:1;" d="M 57.535156 46.808594 C 57.910156 46.007812 58.429688 45.863281 59.203125 45.871094 C 61.390625 45.902344 63.578125 45.789062 65.765625 45.722656 C 66.027344 45.722656 66.285156 45.679688 66.660156 45.648438 C 66.582031 45.882812 66.492188 46.109375 66.382812 46.332031 C 65.398438 47.996094 62.898438 48.882812 61.101562 48.1875 C 59.929688 47.742188 58.761719 47.285156 57.535156 46.808594 Z M 57.535156 46.808594 "/>
</g>
</svg>
